<?xml version="1.0" standalone="no"?>
<!DOCTYPE svg PUBLIC "-//W3C//DTD SVG 20010904//EN"
 "http://www.w3.org/TR/2001/REC-SVG-20010904/DTD/svg10.dtd">
<svg version="1.0" xmlns="http://www.w3.org/2000/svg"
 width="700.000000pt" height="700.000000pt" viewBox="0 0 700.000000 700.000000"
 preserveAspectRatio="xMidYMid meet">
<metadata>
Created by potrace 1.14, written by Peter Selinger 2001-2017
</metadata>
<g transform="translate(0.000000,700.000000) scale(0.100000,-0.100000)"
fill="#000000" stroke="none">
<path d="M1835 6989 c-81 -18 -138 -72 -152 -142 -5 -21 -8 -134 -7 -250 l0
-212 200 -3 199 -2 -1 220 c-1 120 -4 234 -8 252 -17 91 -133 160 -231 137z"/>
<path d="M2601 6980 c-62 -21 -88 -43 -112 -95 -16 -35 -19 -68 -19 -273 l0
-232 198 2 197 3 -1 225 c0 154 -4 237 -13 263 -32 94 -145 143 -250 107z"/>
<path d="M3415 6983 c-53 -18 -99 -65 -114 -115 -10 -33 -17 -321 -12 -471 1
-16 15 -17 198 -15 l198 3 0 214 c0 124 -5 233 -11 258 -27 105 -149 164 -259
126z"/>
<path d="M4235 6990 c-39 -9 -86 -33 -107 -57 -43 -47 -48 -82 -48 -323 l0
-230 198 0 198 0 -1 238 c-1 258 -4 273 -63 327 -42 39 -116 58 -177 45z"/>
<path d="M5010 6984 c-47 -14 -94 -50 -120 -94 -12 -20 -16 -74 -18 -267 l-4
-243 201 0 200 0 0 218 c0 119 -5 236 -11 260 -24 99 -140 158 -248 126z"/>
<path d="M1355 6075 c-242 -59 -415 -238 -459 -475 -9 -49 -12 -563 -11 -2125
1 -1945 2 -2063 19 -2119 16 -55 65 -162 86 -190 72 -93 173 -173 264 -209
121 -47 47 -46 2246 -43 l2075 2 65 22 c211 71 358 234 405 447 14 62 15 301
13 2150 l-3 2080 -21 55 c-70 182 -169 293 -327 365 -121 56 -22 53 -2247 52
-1562 0 -2067 -3 -2105 -12z m407 -528 c76 -42 124 -149 105 -236 -19 -88 -76
-151 -160 -176 -190 -57 -355 143 -266 320 32 66 85 106 157 120 63 13 103 6
164 -28z m3699 8 c47 -25 96 -89 109 -144 36 -152 -66 -283 -221 -284 -122 0
-219 91 -225 210 -3 69 12 115 54 164 72 84 183 105 283 54z m-1766 -270 c17
-2 50 -8 75 -11 25 -3 98 -19 164 -35 575 -142 1050 -573 1255 -1139 74 -206
101 -381 97 -630 -2 -107 -9 -220 -15 -250 -18 -91 -21 -104 -26 -133 -11 -60
-85 -269 -125 -353 -177 -370 -471 -667 -835 -844 -95 -46 -300 -128 -300
-120 0 1 -20 -3 -45 -10 -25 -7 -56 -14 -70 -16 -14 -3 -50 -9 -80 -15 -159
-28 -419 -30 -565 -4 -214 39 -354 84 -525 169 -473 236 -816 661 -943 1171
-14 55 -28 116 -31 135 -29 167 -27 460 3 617 107 551 439 1006 926 1267 208
112 466 188 685 203 47 3 86 6 87 7 5 4 240 -3 268 -9z m-1965 -3427 c126 -53
176 -196 112 -319 -28 -54 -88 -103 -142 -115 -48 -11 -115 -3 -155 17 -54 28
-72 46 -103 99 -44 75 -31 186 30 260 57 69 171 94 258 58z m3727 -9 c134 -64
161 -260 51 -366 -141 -136 -371 -46 -383 149 -10 180 168 296 332 217z"/>
<path d="M3001 4834 c-118 -32 -232 -124 -285 -227 -23 -46 -34 -57 -72 -72
-161 -61 -287 -191 -342 -352 -12 -34 -25 -99 -28 -143 l-7 -81 -62 -65 c-180
-185 -212 -481 -74 -694 20 -31 45 -66 54 -78 14 -16 17 -37 16 -109 -3 -164
50 -296 168 -413 82 -81 162 -128 264 -154 65 -17 77 -23 77 -37 0 -12 48 -83
82 -120 64 -70 185 -127 290 -136 134 -11 254 30 359 125 l60 55 37 -40 c135
-148 363 -184 553 -88 65 34 158 127 188 191 21 45 31 53 73 69 26 9 74 34
106 55 166 106 264 288 265 487 0 26 13 45 63 96 199 205 217 528 41 750 -31
40 -32 44 -33 142 -1 80 -6 116 -28 178 -66 195 -218 337 -407 381 -33 8 -62
16 -63 18 -1 2 -11 21 -21 42 -27 52 -109 136 -167 170 -183 107 -413 79 -559
-66 -27 -27 -50 -48 -53 -48 -3 0 -24 20 -46 44 -44 48 -138 102 -209 121 -66
17 -177 17 -240 -1z m242 -237 c24 -14 55 -41 69 -59 56 -75 55 -43 54 -1053
l-1 -930 -30 -54 c-79 -143 -250 -175 -369 -70 -117 103 -116 287 2 371 21 14
61 34 90 43 73 24 106 65 99 123 -9 78 -67 113 -151 91 -125 -33 -240 -128
-296 -243 -17 -37 -33 -76 -35 -87 -10 -52 -16 -60 -38 -53 -38 12 -99 58
-139 105 -73 87 -95 203 -62 335 l16 64 -28 22 c-153 119 -199 294 -119 461
24 51 92 118 158 155 l55 31 -13 51 c-22 83 -14 175 20 245 25 53 114 155 134
155 4 0 15 -24 24 -54 38 -121 152 -244 263 -286 82 -30 114 -33 154 -13 69
35 81 114 26 169 -19 19 -41 34 -50 34 -27 0 -96 39 -128 72 -62 64 -82 152
-56 242 15 50 98 137 148 154 56 18 152 8 203 -21z m721 13 c91 -38 147 -126
148 -229 1 -103 -63 -186 -173 -226 -94 -34 -126 -90 -93 -161 30 -64 106 -79
187 -38 15 8 27 12 27 9 0 -11 115 73 147 106 50 54 90 125 108 194 10 36 23
65 30 65 20 0 109 -61 143 -99 83 -93 108 -226 66 -355 l-15 -49 65 -61 c90
-85 120 -151 121 -266 0 -94 -24 -163 -81 -229 -25 -30 -126 -103 -154 -113
-6 -2 -4 -34 4 -81 23 -132 -8 -232 -98 -323 -30 -29 -59 -54 -64 -54 -5 0
-13 15 -16 33 -27 143 -187 298 -340 329 -52 10 -58 9 -91 -13 -22 -15 -39
-37 -44 -57 -20 -70 10 -117 91 -144 111 -37 181 -128 180 -234 -1 -96 -49
-174 -136 -218 -47 -24 -65 -28 -114 -24 -105 7 -190 74 -222 171 -9 29 -12
261 -12 956 0 506 3 929 7 942 43 152 192 228 329 169z"/>
<path d="M2744 3879 c-45 -13 -66 -42 -72 -97 -4 -44 -1 -51 27 -79 17 -17 44
-34 60 -38 39 -8 87 -53 106 -98 40 -97 -6 -194 -115 -237 -53 -22 -72 -44
-77 -94 -4 -35 -1 -51 16 -74 39 -55 98 -60 188 -16 84 42 138 96 180 181 33
67 38 86 40 157 2 97 -21 177 -74 248 -74 102 -201 169 -279 147z"/>
<path d="M4142 3867 c-194 -81 -293 -297 -227 -491 42 -122 136 -215 254 -250
45 -13 58 -13 84 -2 44 18 65 45 71 88 6 52 -23 93 -86 122 -88 39 -129 103
-122 186 6 60 45 107 120 145 99 50 119 127 49 191 -41 36 -75 39 -143 11z"/>
<path d="M146 5288 c-139 -29 -190 -222 -88 -330 49 -53 85 -59 322 -56 l214
3 -1 185 c-1 102 -2 190 -2 195 -1 12 -389 14 -445 3z"/>
<path d="M6354 5291 c-2 -2 -4 -91 -4 -198 l0 -193 245 0 c186 0 253 3 278 14
67 28 106 84 114 162 10 92 -36 174 -116 206 -25 10 -507 19 -517 9z"/>
<path d="M136 4493 c-47 -14 -88 -49 -112 -96 -22 -41 -25 -123 -7 -167 19
-47 69 -97 110 -111 27 -9 224 -13 428 -10 l40 1 -2 177 c0 98 -2 187 -2 198
-1 19 -8 20 -207 20 -133 0 -221 -4 -248 -12z"/>
<path d="M6354 4501 c-2 -2 -4 -91 -4 -198 l0 -193 203 -1 c111 0 222 0 247 1
68 2 124 31 157 81 24 37 28 52 28 114 0 61 -4 77 -28 113 -15 24 -45 51 -70
63 -39 21 -57 22 -285 23 -134 1 -246 -1 -248 -3z"/>
<path d="M114 3695 c-133 -59 -148 -264 -26 -345 25 -17 55 -31 66 -31 12 -1
113 -2 224 -3 173 -1 205 1 211 14 3 8 6 96 5 195 l0 180 -225 2 c-171 1 -231
-2 -255 -12z"/>
<path d="M6352 3513 l3 -198 230 0 c127 -1 246 3 265 8 139 36 187 221 86 330
-49 53 -73 57 -341 57 l-245 0 2 -197z"/>
<path d="M160 2888 c-58 -10 -102 -40 -129 -88 -58 -103 -17 -243 84 -286 33
-14 77 -17 253 -18 118 0 217 1 220 4 4 3 7 92 7 198 0 164 -2 192 -15 193
-113 4 -388 2 -420 -3z"/>
<path d="M6378 2892 l-28 -3 0 -193 c0 -193 0 -194 23 -197 12 -3 123 -4 247
-3 210 1 229 3 268 23 61 31 95 88 100 165 5 80 -25 139 -90 179 l-45 28 -224
2 c-123 1 -236 1 -251 -1z"/>
<path d="M125 2088 c-75 -26 -129 -120 -120 -207 6 -63 47 -127 98 -153 39
-20 57 -22 265 -23 193 -1 222 1 223 15 0 8 1 96 2 195 l1 180 -219 2 c-134 1
-232 -3 -250 -9z"/>
<path d="M6350 1906 c0 -108 3 -197 8 -197 36 -6 456 -3 487 4 94 20 152 105
142 209 -6 67 -32 112 -85 149 -35 24 -40 24 -294 27 l-258 3 0 -195z"/>
<path d="M1688 619 c-15 -9 -16 -420 -2 -476 33 -129 211 -180 318 -91 63 52
68 74 69 331 0 125 -2 229 -5 232 -7 8 -368 11 -380 4z"/>
<path d="M2564 622 l-94 -3 0 -230 c0 -240 5 -275 48 -322 47 -52 154 -75 223
-49 43 17 97 70 110 110 9 25 13 109 14 264 l0 227 -103 3 c-57 2 -146 2 -198
0z"/>
<path d="M3338 622 l-48 -3 -1 -72 c-2 -280 1 -396 11 -422 48 -126 233 -160
330 -60 48 49 55 93 54 336 l0 214 -150 5 c-82 3 -170 4 -196 2z"/>
<path d="M4080 390 c0 -185 3 -237 16 -269 59 -147 285 -153 361 -8 14 27 17
66 17 267 l1 235 -197 3 -198 2 0 -230z"/>
<path d="M4870 390 c1 -250 6 -275 57 -326 73 -73 205 -75 284 -3 51 47 58 86
58 333 l0 226 -200 0 -200 0 1 -230z"/>
</g>
</svg>
