<?xml version="1.0" standalone="no"?>
<!DOCTYPE svg PUBLIC "-//W3C//DTD SVG 20010904//EN"
 "http://www.w3.org/TR/2001/REC-SVG-20010904/DTD/svg10.dtd">
<svg version="1.0" xmlns="http://www.w3.org/2000/svg"
 width="614.000000pt" height="614.000000pt" viewBox="0 0 614.000000 614.000000"
 preserveAspectRatio="xMidYMid meet">
<metadata>
Created by potrace 1.14, written by Peter Selinger 2001-2017
</metadata>
<g transform="translate(0.000000,614.000000) scale(0.100000,-0.100000)"
fill="#000000" stroke="none">
<path d="M2135 6069 c-22 -3 -62 -9 -90 -13 -85 -13 -232 -66 -323 -119 -48
-27 -89 -52 -92 -56 -3 -3 -21 -18 -41 -33 -104 -77 -220 -222 -283 -353 -34
-71 -73 -180 -81 -226 -16 -97 -18 -100 -43 -110 -13 -5 -32 -11 -41 -13 -56
-11 -179 -67 -253 -116 -213 -140 -372 -388 -405 -631 -8 -59 -8 -213 0 -269
7 -51 35 -155 57 -210 l19 -49 -47 -27 c-82 -47 -202 -158 -259 -238 -12 -17
-27 -37 -33 -43 -42 -50 -123 -257 -136 -353 -10 -68 -10 -242 -1 -295 34
-188 116 -352 246 -489 51 -53 156 -136 206 -162 25 -13 24 -27 -14 -135 -16
-47 -33 -110 -37 -140 -11 -88 -10 -230 3 -294 6 -33 14 -72 17 -86 6 -37 65
-177 93 -221 13 -21 23 -42 23 -48 0 -5 4 -10 8 -10 4 0 15 -13 24 -28 26 -44
141 -156 210 -205 80 -56 193 -110 283 -135 44 -12 70 -24 70 -33 0 -8 4 -27
8 -44 4 -16 9 -39 12 -50 19 -92 113 -292 158 -337 7 -7 18 -21 23 -31 21 -37
159 -168 228 -216 74 -51 200 -114 251 -127 17 -4 35 -9 40 -13 11 -6 15 -7
60 -16 17 -3 52 -10 80 -16 126 -25 418 6 514 56 17 8 31 13 31 11 0 -8 130
63 193 106 73 49 185 154 222 208 32 46 45 49 65 15 27 -43 149 -163 213 -209
124 -88 299 -164 422 -181 28 -4 61 -9 75 -12 66 -10 204 -4 290 12 71 13 91
19 158 41 91 31 217 99 292 159 61 48 184 181 221 238 64 98 129 244 143 319
17 94 23 103 78 118 175 44 377 176 476 309 15 20 29 38 32 41 59 58 149 282
165 410 6 45 6 208 0 240 -2 14 -7 44 -10 67 -3 24 -21 83 -39 133 l-34 90 34
16 c19 9 34 20 34 25 0 5 6 9 13 9 17 0 69 43 145 119 211 212 304 508 251
801 -39 223 -157 419 -334 560 -35 28 -67 50 -71 50 -5 1 -22 12 -38 25 -28
22 -29 26 -17 52 7 15 20 48 28 72 14 41 17 53 28 111 3 14 7 36 10 50 8 35 8
184 0 245 -9 75 -52 215 -88 287 -100 198 -277 361 -481 442 -38 15 -77 30
-87 32 -11 2 -29 6 -40 9 -28 6 -30 7 -35 47 -3 18 -12 58 -20 88 -8 30 -16
62 -19 71 -11 49 -72 176 -117 244 -57 87 -248 285 -274 285 -3 0 -18 9 -33
19 -70 50 -240 122 -322 136 -19 3 -49 10 -68 15 -35 9 -310 7 -349 -3 -138
-36 -190 -54 -267 -92 -49 -25 -117 -65 -150 -90 -71 -53 -175 -154 -207 -201
-13 -19 -28 -34 -34 -34 -5 0 -21 15 -34 33 -30 40 -79 95 -103 116 -11 9 -33
29 -50 44 -18 15 -44 35 -59 44 -16 10 -28 21 -28 25 0 4 -4 8 -10 8 -5 0 -31
13 -57 28 -70 41 -188 88 -268 107 -81 19 -272 33 -330 24z m199 -374 c27 -3
53 -8 57 -11 5 -3 17 -7 26 -9 10 -2 32 -9 48 -16 17 -7 32 -13 35 -13 3 -1
30 -15 60 -33 151 -86 264 -239 310 -417 15 -62 18 -123 19 -458 l2 -388 -58
-1 c-108 -1 -138 -5 -176 -24 -40 -19 -61 -46 -183 -245 -32 -52 -65 -104 -73
-115 -16 -19 -28 -20 -477 -20 -503 0 -490 1 -546 -59 -83 -89 -55 -235 57
-290 36 -18 67 -19 565 -19 524 0 527 0 573 22 48 23 73 51 126 141 18 30 45
75 61 100 16 25 41 66 56 93 20 35 33 47 51 47 l23 0 -2 -362 -3 -363 -855 -1
c-574 -1 -864 -5 -881 -12 -67 -27 -119 -107 -119 -182 0 -45 42 -113 90 -145
l45 -30 855 -1 c470 -1 858 -2 863 -3 4 0 7 -163 7 -361 l0 -360 -25 0 c-18 0
-28 9 -40 35 -9 19 -23 39 -31 46 -8 6 -14 16 -14 21 0 5 -8 21 -19 36 -10 15
-42 65 -71 111 -63 100 -90 128 -141 141 -23 6 -236 10 -559 10 -498 -1 -524
-2 -560 -20 -22 -11 -51 -36 -67 -57 -25 -32 -28 -45 -28 -107 0 -81 21 -119
85 -159 34 -22 42 -22 475 -24 242 -1 454 -2 470 -2 28 -1 37 -13 135 -172
131 -216 139 -223 287 -227 l104 -4 -3 -406 c-4 -357 -6 -414 -22 -462 -43
-133 -89 -207 -187 -301 -317 -306 -840 -214 -1040 183 -43 85 -61 161 -65
270 -2 71 -8 105 -21 125 -41 67 -88 93 -171 98 -37 3 -78 7 -91 9 -74 16
-190 66 -211 91 -7 8 -17 15 -23 15 -26 0 -167 181 -167 215 0 7 -4 16 -9 19
-4 3 -12 20 -16 38 -4 18 -10 42 -13 53 -3 11 -5 63 -5 115 -1 105 14 165 66
263 28 54 137 177 157 177 5 0 15 6 22 14 8 7 41 27 74 43 82 40 123 101 120
176 -5 107 -93 189 -195 181 -44 -3 -151 -55 -228 -110 -74 -53 -82 -52 -177
10 -98 66 -169 158 -216 281 -30 77 -33 249 -6 336 22 75 80 169 144 233 53
54 187 131 247 141 43 7 93 14 147 19 59 6 101 27 131 68 50 66 53 146 10 210
-37 56 -83 81 -152 84 -31 2 -59 3 -63 3 -12 1 -53 90 -69 146 -17 64 -18 216
0 280 22 78 79 180 132 235 157 163 370 213 589 139 134 -45 184 -39 251 31
58 60 65 153 16 227 -23 35 -121 93 -155 93 -12 0 -23 4 -26 9 -3 4 -24 11
-46 15 -38 6 -40 8 -35 36 13 73 77 204 130 268 65 77 123 124 208 169 126 66
251 87 411 68z m1749 -14 c224 -58 406 -234 466 -452 15 -54 17 -69 7 -69 -37
0 -195 -61 -227 -88 -78 -65 -81 -208 -5 -274 63 -56 124 -60 249 -17 74 26
106 31 176 31 47 -1 96 -3 109 -6 12 -3 30 -8 40 -10 232 -53 419 -310 406
-557 -6 -100 -59 -257 -88 -260 -6 0 -30 -1 -54 -1 -73 0 -135 -35 -167 -97
-63 -123 22 -263 165 -270 45 -2 80 -6 135 -17 72 -15 179 -77 248 -146 66
-66 128 -170 143 -239 18 -87 21 -116 18 -174 -8 -189 -114 -358 -283 -453
-72 -40 -56 -43 -164 30 -141 94 -214 111 -298 70 -66 -33 -94 -81 -94 -164 0
-59 3 -70 31 -105 17 -21 60 -54 98 -74 124 -65 194 -136 255 -256 17 -35 31
-65 31 -68 0 -3 3 -10 5 -17 11 -31 21 -128 18 -178 -6 -126 -40 -214 -128
-328 -79 -103 -242 -184 -390 -195 -82 -7 -99 -12 -143 -44 -50 -37 -66 -77
-68 -168 -2 -108 -9 -144 -44 -232 -39 -98 -78 -154 -161 -234 -126 -121 -288
-184 -469 -183 -29 1 -120 13 -140 19 -3 1 -18 5 -35 10 -16 4 -56 20 -87 36
-208 101 -336 274 -374 506 -4 21 -7 205 -8 410 l-1 372 23 4 c27 5 45 -10 68
-60 10 -19 43 -61 74 -93 273 -273 718 -148 818 230 2 8 5 49 8 90 4 81 -26
219 -52 241 -8 6 -14 16 -14 22 0 11 -65 93 -95 120 -30 26 -125 81 -165 94
-137 46 -305 24 -425 -58 -62 -42 -175 -177 -175 -210 0 -5 -15 -9 -32 -9
l-33 0 1 349 c1 192 3 355 6 363 5 11 70 13 373 13 l368 0 38 -63 c225 -370
774 -288 885 132 20 75 12 212 -16 283 -78 194 -252 316 -450 315 -36 0 -76
-2 -90 -5 -47 -9 -143 -46 -160 -62 -9 -8 -21 -15 -26 -15 -20 0 -117 -106
-147 -161 l-31 -56 -373 1 c-205 0 -373 2 -374 5 -1 8 -1 682 0 704 2 30 19
18 50 -35 114 -197 319 -284 551 -234 53 12 152 70 204 119 136 132 182 316
127 505 -31 106 -134 222 -246 276 -86 42 -148 55 -234 51 -88 -5 -112 -11
-185 -44 -72 -33 -182 -133 -214 -197 -11 -22 -28 -46 -36 -53 -19 -16 -17
-55 -18 389 -1 361 3 427 32 502 10 26 16 48 15 48 -7 0 75 140 95 163 10 12
27 31 37 43 87 99 248 182 393 200 25 4 46 7 47 8 10 8 142 -7 206 -23z m-298
-1417 c61 -29 82 -126 37 -174 -10 -11 -33 -26 -52 -34 -30 -12 -41 -12 -73
-1 -93 32 -109 148 -28 202 40 27 71 29 116 7z m717 -1089 c16 -4 37 -21 48
-40 36 -59 21 -133 -34 -163 -82 -44 -163 -2 -173 90 -6 46 13 80 60 108 31
19 42 20 99 5z m-655 -1118 c37 -41 44 -80 21 -127 -24 -48 -59 -69 -109 -66
-56 4 -97 38 -104 89 -4 23 -2 53 3 67 29 77 135 97 189 37z"/>
</g>
</svg>
